<svg version="1.1" id="Layer_1" xmlns="http://www.w3.org/2000/svg" xmlns:xlink="http://www.w3.org/1999/xlink" x="0px" y="0px"
	 width="100%" viewBox="0 0 1080 1080" enable-background="new 0 0 1080 1080" xml:space="preserve">
<path fill="#121212" opacity="1.000000" stroke="none" 
	d="
M739.000000,1081.000000 
	C492.695038,1081.000000 246.890076,1081.000000 1.042552,1081.000000 
	C1.042552,721.069885 1.042552,361.139832 1.042552,1.104865 
	C360.888519,1.104865 720.777100,1.104865 1080.832764,1.104865 
	C1080.832764,360.999939 1080.832764,720.999939 1080.832764,1081.000000 
	C967.139343,1081.000000 853.319641,1081.000000 739.000000,1081.000000 
M273.192413,639.508789 
	C273.207489,728.495422 273.225555,817.481995 273.234680,906.468628 
	C273.236145,920.767639 274.487335,922.055054 288.965057,922.061951 
	C352.792297,922.092529 416.619507,922.107788 480.446747,922.122192 
	C488.421661,922.124023 489.213287,921.345459 489.225311,913.180115 
	C489.262787,887.682556 488.987640,862.180542 489.401825,836.689514 
	C489.593353,824.904053 490.297577,813.010620 492.166077,801.390686 
	C497.636719,767.369385 515.352112,740.592102 542.401611,719.519714 
	C543.208496,720.060181 543.921143,720.468689 544.557373,720.973450 
	C578.390076,747.809387 594.829041,783.156921 595.300659,826.007935 
	C595.616028,854.667786 595.263916,883.334839 595.227478,911.998657 
	C595.216553,920.625000 596.771606,922.144470 605.393433,922.143494 
	C666.887512,922.136719 728.381592,922.132629 789.875671,922.126404 
	C794.041748,922.125977 798.212280,922.233154 802.372864,922.078796 
	C807.707458,921.880920 810.656799,919.234436 811.457825,913.953857 
	C811.780273,911.827942 811.741516,909.635986 811.742371,907.474121 
	C811.779724,815.816406 811.804993,724.158630 811.815613,632.500916 
	C811.815918,630.172485 811.697144,627.839539 811.526245,625.516602 
	C811.100586,619.729309 808.330994,615.705627 803.059937,612.947266 
	C791.559937,606.929138 780.325134,600.403687 768.817505,594.400696 
	C764.556824,592.178223 763.082397,589.370300 763.095032,584.541565 
	C763.258545,522.048035 763.174622,459.553894 763.315247,397.060242 
	C763.321472,394.274628 764.266418,391.082703 765.814209,388.778656 
	C773.055664,377.998932 780.826233,367.573883 788.032654,356.771912 
	C790.060242,353.732727 791.898254,349.867035 791.971985,346.341797 
	C792.355164,328.018494 792.062256,309.682098 792.195618,291.351654 
	C792.223816,287.484680 790.977966,286.051666 787.016357,286.106232 
	C774.186829,286.283051 761.348267,286.359009 748.523499,286.048706 
	C743.668701,285.931213 742.054016,287.471832 742.283020,292.294556 
	C742.626831,299.534393 742.372437,306.802612 742.372437,313.964294 
	C733.269531,313.964294 724.869324,313.964294 716.052307,313.964294 
	C716.052307,306.301392 715.846619,298.991241 716.128235,291.699890 
	C716.301147,287.220947 714.561279,285.987122 710.273071,286.069122 
	C697.612061,286.311218 684.941833,286.302368 672.279541,286.110779 
	C668.245483,286.049744 666.607544,287.166351 666.778137,291.443512 
	C667.075012,298.887573 666.860718,306.351990 666.860718,313.982025 
	C657.655518,313.982025 648.959412,313.982025 639.972473,313.982025 
	C639.972473,306.474121 639.748352,299.322144 640.053772,292.192871 
	C640.247253,287.677490 638.871155,285.963867 634.140442,286.068970 
	C621.481018,286.350128 608.808899,286.337463 596.147644,286.111053 
	C591.614685,286.030029 589.954407,287.471802 590.004272,292.106842 
	C590.187256,309.102936 590.203003,326.104797 589.945923,343.099426 
	C589.860535,348.740997 591.389404,353.474915 594.668152,357.955841 
	C600.863281,366.422516 606.803650,375.075195 612.957092,383.572968 
	C616.368530,388.284180 618.263000,393.173706 618.049011,399.252716 
	C617.615479,411.569672 617.924988,423.912506 617.897949,436.244568 
	C617.895325,437.456177 617.684265,438.667328 617.530701,440.293701 
	C594.613403,426.290222 572.156860,412.640106 549.790405,398.843964 
	C545.020996,395.902069 540.596558,395.664062 535.811157,398.625214 
	C521.652527,407.386597 507.436249,416.054810 493.235413,424.747833 
	C484.794037,429.915222 476.339264,435.060638 467.216553,440.627167 
	C467.216553,425.097626 467.097656,410.491638 467.325928,395.891083 
	C467.367126,393.254181 468.281189,390.272278 469.737854,388.077118 
	C476.642242,377.672516 484.032043,367.589081 490.892578,357.156921 
	C492.920135,354.073792 494.919495,350.247803 494.990265,346.723206 
	C495.364899,328.066956 495.076660,309.398193 495.129425,290.734070 
	C495.139313,287.240112 493.685547,286.114258 490.303467,286.141754 
	C476.972443,286.250153 463.638580,286.255829 450.308563,286.085083 
	C446.621338,286.037842 445.258911,287.291840 445.354462,291.002899 
	C445.550476,298.613617 445.413300,306.232941 445.413300,313.904999 
	C436.270447,313.904999 427.587372,313.904999 418.730621,313.904999 
	C418.730621,306.600983 418.747192,299.771179 418.725922,292.941498 
	C418.704926,286.212524 418.688110,286.207153 412.194855,286.198700 
	C400.029358,286.182892 387.857605,286.396667 375.701385,286.054413 
	C370.724823,285.914337 368.826233,287.258606 369.117462,292.450714 
	C369.523071,299.681061 369.219604,306.951172 369.219604,313.943604 
	C360.014740,313.943604 351.605621,313.943604 342.953857,313.943604 
	C342.953857,306.074402 342.820160,298.592255 343.010468,291.118347 
	C343.104950,287.408722 341.666168,286.091278 338.029327,286.125519 
	C324.698364,286.250916 311.364624,286.288361 298.034332,286.141113 
	C294.114532,286.097809 292.868835,287.489685 292.910400,291.402527 
	C293.085602,307.898987 293.293884,324.407593 292.822113,340.892639 
	C292.617645,348.037476 294.765137,353.753326 298.833252,359.344482 
	C306.080841,369.305389 313.061829,379.464905 319.939667,389.685852 
	C321.136230,391.464081 321.822784,393.951904 321.826141,396.113403 
	C321.923126,458.273895 321.778717,520.435181 322.079285,582.594360 
	C322.111969,589.351379 319.776062,592.939026 314.081909,595.783630 
	C303.363983,601.138245 292.911926,607.022583 282.295258,612.583496 
	C277.176514,615.264526 273.951965,619.083984 273.744110,625.070068 
	C273.588531,629.552368 273.378204,634.032776 273.192413,639.508789 
M603.012146,244.402435 
	C582.989929,212.689667 562.967773,180.976898 542.628113,148.761337 
	C520.861023,183.225006 499.544281,216.975647 477.969360,251.135071 
	C521.628235,251.135071 564.095886,251.135071 607.148254,251.135071 
	C605.633545,248.689682 604.502014,246.862885 603.012146,244.402435 
z"/>
<path fill="#FCFCFB" opacity="1.000000" stroke="none" 
	d="
M273.192322,639.011414 
	C273.378204,634.032776 273.588531,629.552368 273.744110,625.070068 
	C273.951965,619.083984 277.176514,615.264526 282.295258,612.583496 
	C292.911926,607.022583 303.363983,601.138245 314.081909,595.783630 
	C319.776062,592.939026 322.111969,589.351379 322.079285,582.594360 
	C321.778717,520.435181 321.923126,458.273895 321.826141,396.113403 
	C321.822784,393.951904 321.136230,391.464081 319.939667,389.685852 
	C313.061829,379.464905 306.080841,369.305389 298.833252,359.344482 
	C294.765137,353.753326 292.617645,348.037476 292.822113,340.892639 
	C293.293884,324.407593 293.085602,307.898987 292.910400,291.402527 
	C292.868835,287.489685 294.114532,286.097809 298.034332,286.141113 
	C311.364624,286.288361 324.698364,286.250916 338.029327,286.125519 
	C341.666168,286.091278 343.104950,287.408722 343.010468,291.118347 
	C342.820160,298.592255 342.953857,306.074402 342.953857,313.943604 
	C351.605621,313.943604 360.014740,313.943604 369.219604,313.943604 
	C369.219604,306.951172 369.523071,299.681061 369.117462,292.450714 
	C368.826233,287.258606 370.724823,285.914337 375.701385,286.054413 
	C387.857605,286.396667 400.029358,286.182892 412.194855,286.198700 
	C418.688110,286.207153 418.704926,286.212524 418.725922,292.941498 
	C418.747192,299.771179 418.730621,306.600983 418.730621,313.904999 
	C427.587372,313.904999 436.270447,313.904999 445.413300,313.904999 
	C445.413300,306.232941 445.550476,298.613617 445.354462,291.002899 
	C445.258911,287.291840 446.621338,286.037842 450.308563,286.085083 
	C463.638580,286.255829 476.972443,286.250153 490.303467,286.141754 
	C493.685547,286.114258 495.139313,287.240112 495.129425,290.734070 
	C495.076660,309.398193 495.364899,328.066956 494.990265,346.723206 
	C494.919495,350.247803 492.920135,354.073792 490.892578,357.156921 
	C484.032043,367.589081 476.642242,377.672516 469.737854,388.077118 
	C468.281189,390.272278 467.367126,393.254181 467.325928,395.891083 
	C467.097656,410.491638 467.216553,425.097626 467.216553,440.627167 
	C476.339264,435.060638 484.794037,429.915222 493.235413,424.747833 
	C507.436249,416.054810 521.652527,407.386597 535.811157,398.625214 
	C540.596558,395.664062 545.020996,395.902069 549.790405,398.843964 
	C572.156860,412.640106 594.613403,426.290222 617.530701,440.293701 
	C617.684265,438.667328 617.895325,437.456177 617.897949,436.244568 
	C617.924988,423.912506 617.615479,411.569672 618.049011,399.252716 
	C618.263000,393.173706 616.368530,388.284180 612.957092,383.572968 
	C606.803650,375.075195 600.863281,366.422516 594.668152,357.955841 
	C591.389404,353.474915 589.860535,348.740997 589.945923,343.099426 
	C590.203003,326.104797 590.187256,309.102936 590.004272,292.106842 
	C589.954407,287.471802 591.614685,286.030029 596.147644,286.111053 
	C608.808899,286.337463 621.481018,286.350128 634.140442,286.068970 
	C638.871155,285.963867 640.247253,287.677490 640.053772,292.192871 
	C639.748352,299.322144 639.972473,306.474121 639.972473,313.982025 
	C648.959412,313.982025 657.655518,313.982025 666.860718,313.982025 
	C666.860718,306.351990 667.075012,298.887573 666.778137,291.443512 
	C666.607544,287.166351 668.245483,286.049744 672.279541,286.110779 
	C684.941833,286.302368 697.612061,286.311218 710.273071,286.069122 
	C714.561279,285.987122 716.301147,287.220947 716.128235,291.699890 
	C715.846619,298.991241 716.052307,306.301392 716.052307,313.964294 
	C724.869324,313.964294 733.269531,313.964294 742.372437,313.964294 
	C742.372437,306.802612 742.626831,299.534393 742.283020,292.294556 
	C742.054016,287.471832 743.668701,285.931213 748.523499,286.048706 
	C761.348267,286.359009 774.186829,286.283051 787.016357,286.106232 
	C790.977966,286.051666 792.223816,287.484680 792.195618,291.351654 
	C792.062256,309.682098 792.355164,328.018494 791.971985,346.341797 
	C791.898254,349.867035 790.060242,353.732727 788.032654,356.771912 
	C780.826233,367.573883 773.055664,377.998932 765.814209,388.778656 
	C764.266418,391.082703 763.321472,394.274628 763.315247,397.060242 
	C763.174622,459.553894 763.258545,522.048035 763.095032,584.541565 
	C763.082397,589.370300 764.556824,592.178223 768.817505,594.400696 
	C780.325134,600.403687 791.559937,606.929138 803.059937,612.947266 
	C808.330994,615.705627 811.100586,619.729309 811.526245,625.516602 
	C811.697144,627.839539 811.815918,630.172485 811.815613,632.500916 
	C811.804993,724.158630 811.779724,815.816406 811.742371,907.474121 
	C811.741516,909.635986 811.780273,911.827942 811.457825,913.953857 
	C810.656799,919.234436 807.707458,921.880920 802.372864,922.078796 
	C798.212280,922.233154 794.041748,922.125977 789.875671,922.126404 
	C728.381592,922.132629 666.887512,922.136719 605.393433,922.143494 
	C596.771606,922.144470 595.216553,920.625000 595.227478,911.998657 
	C595.263916,883.334839 595.616028,854.667786 595.300659,826.007935 
	C594.829041,783.156921 578.390076,747.809387 544.557373,720.973450 
	C543.921143,720.468689 543.208496,720.060181 542.401611,719.519714 
	C515.352112,740.592102 497.636719,767.369385 492.166077,801.390686 
	C490.297577,813.010620 489.593353,824.904053 489.401825,836.689514 
	C488.987640,862.180542 489.262787,887.682556 489.225311,913.180115 
	C489.213287,921.345459 488.421661,922.124023 480.446747,922.122192 
	C416.619507,922.107788 352.792297,922.092529 288.965057,922.061951 
	C274.487335,922.055054 273.236145,920.767639 273.234680,906.468628 
	C273.225555,817.481995 273.207489,728.495422 273.192322,639.011414 
M489.309357,645.288208 
	C489.309357,647.484314 489.309357,649.680420 489.309357,652.027832 
	C506.462311,641.911255 522.959473,632.249207 539.362549,622.430115 
	C541.668762,621.049500 543.324829,620.976196 545.657288,622.371948 
	C557.932373,629.717468 570.331299,636.855835 582.662537,644.107971 
	C586.742798,646.507629 590.749756,649.031982 594.962585,651.604614 
	C594.962585,632.283020 595.411255,613.635803 594.839172,595.019958 
	C594.240356,575.535583 589.713440,556.814697 580.969055,539.259766 
	C571.770020,520.792175 558.934692,505.358582 542.303589,492.840912 
	C512.353516,516.389648 494.856476,546.897339 491.182159,584.498840 
	C489.245605,604.316833 489.849762,624.383118 489.309357,645.288208 
M299.977356,781.500000 
	C299.977356,797.218872 299.977356,812.937744 299.977356,828.996094 
	C301.057800,828.611694 301.555389,828.543152 301.923798,828.288086 
	C327.502075,810.577454 353.098969,792.893127 378.560059,775.015320 
	C379.941101,774.045593 380.826263,771.455078 380.847473,769.606445 
	C381.036865,753.126465 380.982239,736.643677 380.994202,720.161682 
	C381.000214,711.879578 380.995209,703.597473 380.995209,695.225098 
	C353.756409,695.225098 326.936127,695.225098 299.978516,695.225098 
	C299.978516,723.913086 299.978516,752.206543 299.977356,781.500000 
M765.569092,815.962891 
	C771.919861,820.358765 778.270630,824.754700 785.089661,829.474670 
	C785.089661,784.145813 785.089661,739.650574 785.089661,695.238525 
	C757.904358,695.238525 731.054382,695.238525 704.055603,695.238525 
	C704.055603,720.771179 704.003357,745.900146 704.181274,771.027466 
	C704.192322,772.585999 705.658142,774.640442 707.044617,775.606567 
	C726.289856,789.016541 745.639648,802.276489 765.569092,815.962891 
M485.769409,684.278687 
	C480.900391,687.161072 476.137543,690.248291 471.121796,692.847595 
	C468.205048,694.359253 467.214691,696.161011 467.230713,699.454834 
	C467.365692,727.273438 467.298004,755.093018 467.305420,782.912292 
	C467.305603,783.570679 467.470825,784.229126 467.666443,785.689026 
	C468.361664,784.431946 468.680634,784.039490 468.811768,783.591919 
	C480.494720,743.709106 504.118622,712.792480 538.871033,690.219604 
	C540.805176,688.963318 542.332458,687.626587 545.034729,689.387573 
	C571.836792,706.854797 593.340637,729.074036 606.964783,758.302856 
	C610.931824,766.813660 614.156372,775.670593 617.689331,784.290771 
	C617.667297,784.321899 617.799805,784.221924 617.799988,784.121765 
	C617.853760,755.470825 617.952576,726.819641 617.801758,698.169739 
	C617.793213,696.539673 616.109253,694.299683 614.581787,693.389221 
	C591.566772,679.671387 568.420105,666.174377 545.392822,652.476746 
	C543.026978,651.069458 541.511169,651.157532 539.196899,652.552307 
	C521.665283,663.118225 504.024567,673.503052 485.769409,684.278687 
M503.279510,448.797760 
	C492.335480,455.461029 481.447144,462.218964 470.405518,468.716339 
	C467.865112,470.211243 467.122437,471.892853 467.145477,474.695892 
	C467.275360,490.517853 467.226166,506.341339 467.232208,522.164307 
	C467.236938,534.556152 467.233215,546.947998 467.233215,559.339844 
	C468.314606,557.924866 468.820435,556.408386 469.303558,554.884766 
	C481.661530,515.911926 504.891144,485.269958 539.585693,463.511719 
	C540.998413,462.625732 543.847717,462.471649 545.215210,463.306854 
	C564.790527,475.261719 581.335083,490.504761 594.192749,509.589172 
	C604.747437,525.255371 612.827271,542.078247 617.565002,560.496216 
	C617.873108,559.688904 617.976013,558.931763 617.976135,558.174622 
	C617.981567,530.192810 618.037659,502.210541 617.835022,474.230133 
	C617.821899,472.426025 616.241638,469.925140 614.652649,468.946960 
	C591.695740,454.816162 568.584290,440.936523 545.598145,426.852814 
	C543.010254,425.267151 541.184875,425.682831 538.862244,427.116425 
	C527.250122,434.283569 515.562866,441.328888 503.279510,448.797760 
M348.526581,572.021362 
	C348.679169,573.104797 348.831757,574.188293 349.067841,575.864380 
	C358.789276,570.359619 367.984985,565.010498 377.333527,559.943298 
	C380.238159,558.368958 381.042603,556.451416 381.035767,553.240234 
	C380.930176,503.745728 380.965729,454.250946 380.968506,404.756195 
	C380.968597,403.160919 380.968506,401.565643 380.968506,399.995728 
	C369.808044,399.995728 359.357208,399.995728 348.526886,399.995728 
	C348.526886,457.198730 348.526886,514.154907 348.526581,572.021362 
M708.300598,560.082764 
	C717.495911,565.307617 726.691162,570.532532 736.455078,576.080566 
	C736.455078,516.862244 736.455078,458.528473 736.455078,400.008911 
	C725.584412,400.008911 715.013794,400.008911 704.167908,400.008911 
	C704.111572,401.059509 704.031311,401.858551 704.031189,402.657593 
	C704.022522,453.120728 704.062195,503.583984 703.918274,554.046692 
	C703.909241,557.204285 705.360352,558.504089 708.300598,560.082764 
M750.225769,837.277344 
	C735.093994,826.818481 719.962158,816.359680 704.401978,805.604736 
	C704.401978,836.055847 704.401978,865.699463 704.401978,895.393555 
	C731.518921,895.393555 758.242065,895.393555 785.492249,895.393555 
	C785.492249,885.916565 785.342773,876.780029 785.562012,867.652344 
	C785.656494,863.718506 784.263062,861.075500 781.074707,858.883606 
	C770.927063,851.907776 760.888550,844.773132 750.225769,837.277344 
M315.505371,895.710388 
	C337.251556,895.710388 358.997711,895.710388 380.688934,895.710388 
	C380.688934,865.551514 380.688934,836.168213 380.688934,806.561096 
	C379.881866,806.799377 379.367798,806.826294 379.007111,807.075439 
	C353.667511,824.579285 328.327454,842.082764 303.049561,859.675537 
	C301.795654,860.548279 300.287537,862.194458 300.259338,863.509766 
	C300.032227,874.099243 300.132172,884.695801 300.132172,895.710205 
	C305.239746,895.710205 309.873993,895.710205 315.505371,895.710388 
M704.117371,651.498047 
	C704.117371,657.089050 704.117371,662.680115 704.117371,668.421997 
	C731.446655,668.421997 758.164124,668.421997 785.430908,668.421997 
	C785.430908,656.922180 785.523254,645.649719 785.287720,634.384155 
	C785.264221,633.262451 783.424927,631.859375 782.123779,631.131165 
	C759.347595,618.382324 736.526123,605.714478 713.707886,593.040894 
	C710.632324,591.332764 707.521301,589.688538 704.116394,587.846863 
	C704.116394,609.229553 704.116394,629.864258 704.117371,651.498047 
M309.562073,668.630859 
	C333.290619,668.630859 357.019165,668.630859 380.698608,668.630859 
	C380.698608,641.364807 380.698608,614.966492 380.698608,588.216797 
	C379.756378,588.594604 379.134888,588.768250 378.587372,589.074280 
	C354.319519,602.636597 330.144012,616.368591 305.720886,629.645020 
	C301.057495,632.179993 299.532715,634.926880 299.773315,640.053101 
	C300.214264,649.448303 299.898926,658.878906 299.898926,668.629211 
	C303.293915,668.629211 305.939056,668.629211 309.562073,668.630859 
M407.190033,428.500000 
	C407.190033,466.639221 407.190033,504.778442 407.190033,543.632751 
	C417.646881,537.658386 427.095764,532.112061 436.707001,526.862915 
	C439.433685,525.373718 440.292023,523.664917 440.283020,520.624084 
	C440.167542,481.674408 440.193970,442.724365 440.164764,403.774414 
	C440.163818,402.509430 439.954498,401.244537 439.838318,399.934631 
	C428.891937,399.934631 418.297791,399.934631 407.192810,399.934631 
	C407.192810,409.275970 407.192810,418.388000 407.190033,428.500000 
M644.841492,477.499939 
	C644.836975,491.993256 644.916260,506.487457 644.757629,520.979065 
	C644.725769,523.890320 645.728882,525.419250 648.219421,526.791992 
	C656.961853,531.610535 665.563416,536.684021 674.237122,541.628052 
	C675.277161,542.220825 676.431885,542.612427 677.576965,543.116394 
	C677.576965,495.036774 677.576965,447.483856 677.576965,399.952179 
	C666.585144,399.952179 655.973938,399.952179 644.841492,399.952179 
	C644.841492,425.628265 644.841492,451.064117 644.841492,477.499939 
M622.946167,352.586731 
	C627.227600,358.522400 631.340515,364.592743 635.903259,370.303650 
	C637.118469,371.824646 639.708496,373.040985 641.673889,373.050659 
	C674.466980,373.212280 707.261292,373.181122 740.054993,373.092499 
	C741.723633,373.087982 744.083618,372.717072 744.948120,371.604675 
	C752.367798,362.057159 759.516907,352.299347 766.898315,342.401215 
	C759.844788,340.304077 619.546265,341.047241 616.111389,343.144043 
	C618.251465,346.113434 620.379395,349.065887 622.946167,352.586731 
M403.499969,373.139587 
	C416.831696,373.150513 430.164581,373.070129 443.494232,373.241882 
	C446.510132,373.280701 448.361298,372.333405 450.032379,369.841949 
	C453.926819,364.035370 458.125519,358.432983 462.195099,352.743683 
	C464.649323,349.312561 467.092529,345.873566 469.986298,341.812805 
	C419.003784,341.812805 369.061493,341.812805 318.077423,341.812805 
	C325.287018,351.641235 331.925079,360.572723 338.417145,369.609070 
	C340.492767,372.498199 343.040802,373.263031 346.507507,373.232178 
	C365.170441,373.066040 383.835571,373.144684 403.499969,373.139587 
M671.288696,895.692566 
	C673.370483,895.692566 675.452271,895.692566 677.316650,895.692566 
	C677.609009,894.515991 677.758850,894.193787 677.759277,893.871521 
	C677.800781,859.241760 677.868408,824.611938 677.743958,789.982727 
	C677.738159,788.371033 676.388000,786.252808 675.020203,785.240417 
	C666.328430,778.807861 657.464111,772.607849 648.630371,766.368408 
	C647.648071,765.674500 646.500305,765.215027 645.174316,764.511536 
	C645.174316,808.450012 645.174316,851.820496 645.174316,895.694824 
	C653.760925,895.694824 662.048401,895.694824 671.288696,895.692566 
M440.211517,810.500061 
	C440.211517,795.422241 440.211517,780.344421 440.211517,764.511719 
	C438.168671,765.781555 436.768707,766.557312 435.469025,767.475159 
	C427.316406,773.232605 419.277649,779.157776 411.000031,784.728516 
	C407.996765,786.749634 407.080688,789.027893 407.096039,792.544983 
	C407.239166,825.336121 407.200958,858.128052 407.231201,890.919739 
	C407.232513,892.367065 407.387421,893.814209 407.472137,895.285522 
	C418.499603,895.285522 429.185944,895.285522 440.209930,895.285522 
	C440.209930,867.063477 440.209930,839.281799 440.211517,810.500061 
M407.320709,596.499634 
	C407.320709,620.405945 407.320709,644.312195 407.320709,668.328796 
	C418.462128,668.328796 429.064453,668.328796 439.849976,668.328796 
	C439.849976,630.418457 439.849976,592.791992 439.849976,554.633484 
	C429.383087,560.633850 419.398346,566.247864 409.574707,572.130920 
	C408.371490,572.851501 407.448639,574.991211 407.392395,576.510193 
	C407.158386,582.832275 407.305908,589.168579 407.320709,596.499634 
M677.484619,573.628235 
	C666.794189,567.371948 656.103760,561.115662 645.159912,554.711060 
	C645.159912,593.028320 645.159912,630.575195 645.159912,668.184692 
	C656.240173,668.184692 666.959106,668.184692 677.788208,668.184692 
	C677.788208,636.667419 677.788208,605.536499 677.484619,573.628235 
M407.164825,729.499939 
	C407.164825,737.717773 407.164825,745.935608 407.164825,755.241150 
	C416.123047,748.931763 423.812561,742.837036 432.165649,737.854675 
	C438.482605,734.086731 441.052643,729.736633 440.420471,722.279236 
	C439.656799,713.269958 440.239532,704.146606 440.239532,695.231689 
	C428.803650,695.231689 418.092834,695.231689 407.160950,695.231689 
	C407.160950,706.570312 407.160950,717.535095 407.164825,729.499939 
M656.362854,740.134216 
	C663.275391,744.897522 670.187927,749.660767 677.653687,754.805298 
	C677.653687,734.453369 677.653687,714.910889 677.653687,695.108765 
	C666.797852,695.108765 656.076965,695.108765 644.896973,695.108765 
	C644.896973,703.103333 645.588257,710.968079 644.724304,718.657959 
	C643.610962,728.567200 646.239380,735.765259 656.362854,740.134216 
z"/>
<path fill="#F9FAF9" opacity="1.000000" stroke="none" 
	d="
M603.191284,244.719269 
	C604.502014,246.862885 605.633545,248.689682 607.148254,251.135071 
	C564.095886,251.135071 521.628235,251.135071 477.969360,251.135071 
	C499.544281,216.975647 520.861023,183.225006 542.628113,148.761337 
	C562.967773,180.976898 582.989929,212.689667 603.191284,244.719269 
M533.618164,225.157700 
	C542.032471,225.157700 550.446716,225.157700 559.863464,225.157700 
	C553.836365,215.254730 548.322632,206.195328 542.538940,196.692307 
	C536.679443,206.402191 531.227539,215.436752 525.362244,225.156235 
	C528.416748,225.156235 530.537964,225.156235 533.618164,225.157700 
z"/>
<path fill="#121212" opacity="1.000000" stroke="none" 
	d="
M489.308044,644.812744 
	C489.849762,624.383118 489.245605,604.316833 491.182159,584.498840 
	C494.856476,546.897339 512.353516,516.389648 542.303589,492.840912 
	C558.934692,505.358582 571.770020,520.792175 580.969055,539.259766 
	C589.713440,556.814697 594.240356,575.535583 594.839172,595.019958 
	C595.411255,613.635803 594.962585,632.283020 594.962585,651.604614 
	C590.749756,649.031982 586.742798,646.507629 582.662537,644.107971 
	C570.331299,636.855835 557.932373,629.717468 545.657288,622.371948 
	C543.324829,620.976196 541.668762,621.049500 539.362549,622.430115 
	C522.959473,632.249207 506.462311,641.911255 489.309357,652.027832 
	C489.309357,649.680420 489.309357,647.484314 489.308044,644.812744 
z"/>
<path fill="#111111" opacity="1.000000" stroke="none" 
	d="
M299.977936,781.000000 
	C299.978516,752.206543 299.978516,723.913086 299.978516,695.225098 
	C326.936127,695.225098 353.756409,695.225098 380.995209,695.225098 
	C380.995209,703.597473 381.000214,711.879578 380.994202,720.161682 
	C380.982239,736.643677 381.036865,753.126465 380.847473,769.606445 
	C380.826263,771.455078 379.941101,774.045593 378.560059,775.015320 
	C353.098969,792.893127 327.502075,810.577454 301.923798,828.288086 
	C301.555389,828.543152 301.057800,828.611694 299.977356,828.996094 
	C299.977356,812.937744 299.977356,797.218872 299.977936,781.000000 
z"/>
<path fill="#111111" opacity="1.000000" stroke="none" 
	d="
M765.266479,815.767944 
	C745.639648,802.276489 726.289856,789.016541 707.044617,775.606567 
	C705.658142,774.640442 704.192322,772.585999 704.181274,771.027466 
	C704.003357,745.900146 704.055603,720.771179 704.055603,695.238525 
	C731.054382,695.238525 757.904358,695.238525 785.089661,695.238525 
	C785.089661,739.650574 785.089661,784.145813 785.089661,829.474670 
	C778.270630,824.754700 771.919861,820.358765 765.266479,815.767944 
z"/>
<path fill="#131313" opacity="1.000000" stroke="none" 
	d="
M486.093628,684.111572 
	C504.024567,673.503052 521.665283,663.118225 539.196899,652.552307 
	C541.511169,651.157532 543.026978,651.069458 545.392822,652.476746 
	C568.420105,666.174377 591.566772,679.671387 614.581787,693.389221 
	C616.109253,694.299683 617.793213,696.539673 617.801758,698.169739 
	C617.952576,726.819641 617.853760,755.470825 617.799988,784.121765 
	C617.799805,784.221924 617.667297,784.321899 617.689331,784.290771 
	C614.156372,775.670593 610.931824,766.813660 606.964783,758.302856 
	C593.340637,729.074036 571.836792,706.854797 545.034729,689.387573 
	C542.332458,687.626587 540.805176,688.963318 538.871033,690.219604 
	C504.118622,712.792480 480.494720,743.709106 468.811768,783.591919 
	C468.680634,784.039490 468.361664,784.431946 467.666443,785.689026 
	C467.470825,784.229126 467.305603,783.570679 467.305420,782.912292 
	C467.298004,755.093018 467.365692,727.273438 467.230713,699.454834 
	C467.214691,696.161011 468.205048,694.359253 471.121796,692.847595 
	C476.137543,690.248291 480.900391,687.161072 486.093628,684.111572 
z"/>
<path fill="#131313" opacity="1.000000" stroke="none" 
	d="
M503.590759,448.607391 
	C515.562866,441.328888 527.250122,434.283569 538.862244,427.116425 
	C541.184875,425.682831 543.010254,425.267151 545.598145,426.852814 
	C568.584290,440.936523 591.695740,454.816162 614.652649,468.946960 
	C616.241638,469.925140 617.821899,472.426025 617.835022,474.230133 
	C618.037659,502.210541 617.981567,530.192810 617.976135,558.174622 
	C617.976013,558.931763 617.873108,559.688904 617.565002,560.496216 
	C612.827271,542.078247 604.747437,525.255371 594.192749,509.589172 
	C581.335083,490.504761 564.790527,475.261719 545.215210,463.306854 
	C543.847717,462.471649 540.998413,462.625732 539.585693,463.511719 
	C504.891144,485.269958 481.661530,515.911926 469.303558,554.884766 
	C468.820435,556.408386 468.314606,557.924866 467.233215,559.339844 
	C467.233215,546.947998 467.236938,534.556152 467.232208,522.164307 
	C467.226166,506.341339 467.275360,490.517853 467.145477,474.695892 
	C467.122437,471.892853 467.865112,470.211243 470.405518,468.716339 
	C481.447144,462.218964 492.335480,455.461029 503.590759,448.607391 
z"/>
<path fill="#141514" opacity="1.000000" stroke="none" 
	d="
M348.526733,571.566223 
	C348.526886,514.154907 348.526886,457.198730 348.526886,399.995728 
	C359.357208,399.995728 369.808044,399.995728 380.968506,399.995728 
	C380.968506,401.565643 380.968597,403.160919 380.968506,404.756195 
	C380.965729,454.250946 380.930176,503.745728 381.035767,553.240234 
	C381.042603,556.451416 380.238159,558.368958 377.333527,559.943298 
	C367.984985,565.010498 358.789276,570.359619 349.067841,575.864380 
	C348.831757,574.188293 348.679169,573.104797 348.526733,571.566223 
z"/>
<path fill="#141414" opacity="1.000000" stroke="none" 
	d="
M707.970947,559.891907 
	C705.360352,558.504089 703.909241,557.204285 703.918274,554.046692 
	C704.062195,503.583984 704.022522,453.120728 704.031189,402.657593 
	C704.031311,401.858551 704.111572,401.059509 704.167908,400.008911 
	C715.013794,400.008911 725.584412,400.008911 736.455078,400.008911 
	C736.455078,458.528473 736.455078,516.862244 736.455078,576.080566 
	C726.691162,570.532532 717.495911,565.307617 707.970947,559.891907 
z"/>
<path fill="#131312" opacity="1.000000" stroke="none" 
	d="
M750.516846,837.488586 
	C760.888550,844.773132 770.927063,851.907776 781.074707,858.883606 
	C784.263062,861.075500 785.656494,863.718506 785.562012,867.652344 
	C785.342773,876.780029 785.492249,885.916565 785.492249,895.393555 
	C758.242065,895.393555 731.518921,895.393555 704.401978,895.393555 
	C704.401978,865.699463 704.401978,836.055847 704.401978,805.604736 
	C719.962158,816.359680 735.093994,826.818481 750.516846,837.488586 
z"/>
<path fill="#131313" opacity="1.000000" stroke="none" 
	d="
M315.006805,895.710327 
	C309.873993,895.710205 305.239746,895.710205 300.132172,895.710205 
	C300.132172,884.695801 300.032227,874.099243 300.259338,863.509766 
	C300.287537,862.194458 301.795654,860.548279 303.049561,859.675537 
	C328.327454,842.082764 353.667511,824.579285 379.007111,807.075439 
	C379.367798,806.826294 379.881866,806.799377 380.688934,806.561096 
	C380.688934,836.168213 380.688934,865.551514 380.688934,895.710388 
	C358.997711,895.710388 337.251556,895.710388 315.006805,895.710327 
z"/>
<path fill="#131313" opacity="1.000000" stroke="none" 
	d="
M704.116882,650.998535 
	C704.116394,629.864258 704.116394,609.229553 704.116394,587.846863 
	C707.521301,589.688538 710.632324,591.332764 713.707886,593.040894 
	C736.526123,605.714478 759.347595,618.382324 782.123779,631.131165 
	C783.424927,631.859375 785.264221,633.262451 785.287720,634.384155 
	C785.523254,645.649719 785.430908,656.922180 785.430908,668.421997 
	C758.164124,668.421997 731.446655,668.421997 704.117371,668.421997 
	C704.117371,662.680115 704.117371,657.089050 704.116882,650.998535 
z"/>
<path fill="#131313" opacity="1.000000" stroke="none" 
	d="
M309.073120,668.630005 
	C305.939056,668.629211 303.293915,668.629211 299.898926,668.629211 
	C299.898926,658.878906 300.214264,649.448303 299.773315,640.053101 
	C299.532715,634.926880 301.057495,632.179993 305.720886,629.645020 
	C330.144012,616.368591 354.319519,602.636597 378.587372,589.074280 
	C379.134888,588.768250 379.756378,588.594604 380.698608,588.216797 
	C380.698608,614.966492 380.698608,641.364807 380.698608,668.630859 
	C357.019165,668.630859 333.290619,668.630859 309.073120,668.630005 
z"/>
<path fill="#131313" opacity="1.000000" stroke="none" 
	d="
M407.191406,428.000000 
	C407.192810,418.388000 407.192810,409.275970 407.192810,399.934631 
	C418.297791,399.934631 428.891937,399.934631 439.838318,399.934631 
	C439.954498,401.244537 440.163818,402.509430 440.164764,403.774414 
	C440.193970,442.724365 440.167542,481.674408 440.283020,520.624084 
	C440.292023,523.664917 439.433685,525.373718 436.707001,526.862915 
	C427.095764,532.112061 417.646881,537.658386 407.190033,543.632751 
	C407.190033,504.778442 407.190033,466.639221 407.191406,428.000000 
z"/>
<path fill="#121212" opacity="1.000000" stroke="none" 
	d="
M644.841492,476.999939 
	C644.841492,451.064117 644.841492,425.628265 644.841492,399.952179 
	C655.973938,399.952179 666.585144,399.952179 677.576965,399.952179 
	C677.576965,447.483856 677.576965,495.036774 677.576965,543.116394 
	C676.431885,542.612427 675.277161,542.220825 674.237122,541.628052 
	C665.563416,536.684021 656.961853,531.610535 648.219421,526.791992 
	C645.728882,525.419250 644.725769,523.890320 644.757629,520.979065 
	C644.916260,506.487457 644.836975,491.993256 644.841492,476.999939 
z"/>
<path fill="#151514" opacity="1.000000" stroke="none" 
	d="
M622.726685,352.302521 
	C620.379395,349.065887 618.251465,346.113434 616.111389,343.144043 
	C619.546265,341.047241 759.844788,340.304077 766.898315,342.401215 
	C759.516907,352.299347 752.367798,362.057159 744.948120,371.604675 
	C744.083618,372.717072 741.723633,373.087982 740.054993,373.092499 
	C707.261292,373.181122 674.466980,373.212280 641.673889,373.050659 
	C639.708496,373.040985 637.118469,371.824646 635.903259,370.303650 
	C631.340515,364.592743 627.227600,358.522400 622.726685,352.302521 
z"/>
<path fill="#151515" opacity="1.000000" stroke="none" 
	d="
M402.999939,373.139221 
	C383.835571,373.144684 365.170441,373.066040 346.507507,373.232178 
	C343.040802,373.263031 340.492767,372.498199 338.417145,369.609070 
	C331.925079,360.572723 325.287018,351.641235 318.077423,341.812805 
	C369.061493,341.812805 419.003784,341.812805 469.986298,341.812805 
	C467.092529,345.873566 464.649323,349.312561 462.195099,352.743683 
	C458.125519,358.432983 453.926819,364.035370 450.032379,369.841949 
	C448.361298,372.333405 446.510132,373.280701 443.494232,373.241882 
	C430.164581,373.070129 416.831696,373.150513 402.999939,373.139221 
z"/>
<path fill="#131313" opacity="1.000000" stroke="none" 
	d="
M670.812317,895.693726 
	C662.048401,895.694824 653.760925,895.694824 645.174316,895.694824 
	C645.174316,851.820496 645.174316,808.450012 645.174316,764.511536 
	C646.500305,765.215027 647.648071,765.674500 648.630371,766.368408 
	C657.464111,772.607849 666.328430,778.807861 675.020203,785.240417 
	C676.388000,786.252808 677.738159,788.371033 677.743958,789.982727 
	C677.868408,824.611938 677.800781,859.241760 677.759277,893.871521 
	C677.758850,894.193787 677.609009,894.515991 677.316650,895.692566 
	C675.452271,895.692566 673.370483,895.692566 670.812317,895.693726 
z"/>
<path fill="#141414" opacity="1.000000" stroke="none" 
	d="
M440.210724,811.000122 
	C440.209930,839.281799 440.209930,867.063477 440.209930,895.285522 
	C429.185944,895.285522 418.499603,895.285522 407.472137,895.285522 
	C407.387421,893.814209 407.232513,892.367065 407.231201,890.919739 
	C407.200958,858.128052 407.239166,825.336121 407.096039,792.544983 
	C407.080688,789.027893 407.996765,786.749634 411.000031,784.728516 
	C419.277649,779.157776 427.316406,773.232605 435.469025,767.475159 
	C436.768707,766.557312 438.168671,765.781555 440.211517,764.511719 
	C440.211517,780.344421 440.211517,795.422241 440.210724,811.000122 
z"/>
<path fill="#141414" opacity="1.000000" stroke="none" 
	d="
M407.317078,595.999634 
	C407.305908,589.168579 407.158386,582.832275 407.392395,576.510193 
	C407.448639,574.991211 408.371490,572.851501 409.574707,572.130920 
	C419.398346,566.247864 429.383087,560.633850 439.849976,554.633484 
	C439.849976,592.791992 439.849976,630.418457 439.849976,668.328796 
	C429.064453,668.328796 418.462128,668.328796 407.320709,668.328796 
	C407.320709,644.312195 407.320709,620.405945 407.317078,595.999634 
z"/>
<path fill="#131313" opacity="1.000000" stroke="none" 
	d="
M677.636414,574.016907 
	C677.788208,605.536499 677.788208,636.667419 677.788208,668.184692 
	C666.959106,668.184692 656.240173,668.184692 645.159912,668.184692 
	C645.159912,630.575195 645.159912,593.028320 645.159912,554.711060 
	C656.103760,561.115662 666.794189,567.371948 677.636414,574.016907 
z"/>
<path fill="#141414" opacity="1.000000" stroke="none" 
	d="
M407.162903,728.999878 
	C407.160950,717.535095 407.160950,706.570312 407.160950,695.231689 
	C418.092834,695.231689 428.803650,695.231689 440.239532,695.231689 
	C440.239532,704.146606 439.656799,713.269958 440.420471,722.279236 
	C441.052643,729.736633 438.482605,734.086731 432.165649,737.854675 
	C423.812561,742.837036 416.123047,748.931763 407.164825,755.241150 
	C407.164825,745.935608 407.164825,737.717773 407.162903,728.999878 
z"/>
<path fill="#131313" opacity="1.000000" stroke="none" 
	d="
M656.060913,739.941040 
	C646.239380,735.765259 643.610962,728.567200 644.724304,718.657959 
	C645.588257,710.968079 644.896973,703.103333 644.896973,695.108765 
	C656.076965,695.108765 666.797852,695.108765 677.653687,695.108765 
	C677.653687,714.910889 677.653687,734.453369 677.653687,754.805298 
	C670.187927,749.660767 663.275391,744.897522 656.060913,739.941040 
z"/>
<path fill="#171717" opacity="1.000000" stroke="none" 
	d="
M533.138672,225.156967 
	C530.537964,225.156235 528.416748,225.156235 525.362244,225.156235 
	C531.227539,215.436752 536.679443,206.402191 542.538940,196.692307 
	C548.322632,206.195328 553.836365,215.254730 559.863464,225.157700 
	C550.446716,225.157700 542.032471,225.157700 533.138672,225.156967 
z"/>
</svg>